<svg width="30" height="31" viewBox="0 0 30 31" fill="none" xmlns="http://www.w3.org/2000/svg">
<rect y="0.306152" width="30" height="30" rx="15" fill="#2F2F2F"/>
<g clip-path="url(#clip0_2337_5747)">
<g clip-path="url(#clip1_2337_5747)">
<path d="M20.7533 13.1322H20.479L19.4076 10.4579C19.2162 9.98238 18.8872 9.57492 18.4626 9.28779C18.038 9.00067 17.5373 8.84697 17.0247 8.84645H11.8819C11.2864 8.84474 10.7088 9.04975 10.2477 9.42649C9.78652 9.80322 9.47042 10.3283 9.35331 10.9122L8.9076 13.1322H8.75331C8.07133 13.1322 7.41728 13.4031 6.93504 13.8853C6.4528 14.3676 6.18188 15.0216 6.18188 15.7036V18.275C6.18188 18.5023 6.27219 18.7204 6.43294 18.8811C6.59368 19.0419 6.8117 19.1322 7.03903 19.1322H7.89617C7.89617 19.8141 8.16709 20.4682 8.64932 20.9504C9.13156 21.4327 9.78561 21.7036 10.4676 21.7036C11.1496 21.7036 11.8036 21.4327 12.2859 20.9504C12.7681 20.4682 13.039 19.8141 13.039 19.1322H16.4676C16.4676 19.8141 16.7385 20.4682 17.2208 20.9504C17.703 21.4327 18.357 21.7036 19.039 21.7036C19.721 21.7036 20.3751 21.4327 20.8573 20.9504C21.3395 20.4682 21.6105 19.8141 21.6105 19.1322H22.4676C22.6949 19.1322 22.9129 19.0419 23.0737 18.8811C23.2344 18.7204 23.3247 18.5023 23.3247 18.275V15.7036C23.3247 15.0216 23.0538 14.3676 22.5716 13.8853C22.0894 13.4031 21.4353 13.1322 20.7533 13.1322ZM15.6105 10.5607H17.0247C17.1949 10.5623 17.3608 10.6145 17.5013 10.7106C17.6417 10.8068 17.7503 10.9426 17.8133 11.1007L18.6276 13.1322H15.6105V10.5607ZM11.0333 11.2464C11.0734 11.0499 11.1811 10.8737 11.3377 10.7484C11.4943 10.6231 11.6899 10.5567 11.8905 10.5607H13.8962V13.1322H10.6562L11.0333 11.2464ZM10.4676 19.9893C10.2981 19.9893 10.1324 19.939 9.9914 19.8449C9.85044 19.7507 9.74058 19.6168 9.6757 19.4602C9.61083 19.3036 9.59385 19.1312 9.62693 18.9649C9.66 18.7987 9.74163 18.6459 9.86151 18.5261C9.98138 18.4062 10.1341 18.3246 10.3004 18.2915C10.4666 18.2584 10.639 18.2754 10.7956 18.3403C10.9522 18.4051 11.0861 18.515 11.1803 18.656C11.2745 18.7969 11.3247 18.9626 11.3247 19.1322C11.3247 19.3595 11.2344 19.5775 11.0737 19.7383C10.9129 19.899 10.6949 19.9893 10.4676 19.9893ZM19.039 19.9893C18.8695 19.9893 18.7038 19.939 18.5628 19.8449C18.4219 19.7507 18.312 19.6168 18.2471 19.4602C18.1823 19.3036 18.1653 19.1312 18.1984 18.9649C18.2314 18.7987 18.3131 18.6459 18.4329 18.5261C18.5528 18.4062 18.7055 18.3246 18.8718 18.2915C19.0381 18.2584 19.2104 18.2754 19.367 18.3403C19.5237 18.4051 19.6575 18.515 19.7517 18.656C19.8459 18.7969 19.8962 18.9626 19.8962 19.1322C19.8962 19.3595 19.8059 19.5775 19.6451 19.7383C19.4844 19.899 19.2664 19.9893 19.039 19.9893ZM21.6105 17.4179H20.9419C20.7009 17.1527 20.4071 16.9409 20.0794 16.7959C19.7517 16.6509 19.3974 16.576 19.039 16.576C18.6807 16.576 18.3263 16.6509 17.9986 16.7959C17.671 16.9409 17.3772 17.1527 17.1362 17.4179H12.3705C12.1294 17.1527 11.8357 16.9409 11.508 16.7959C11.1803 16.6509 10.8259 16.576 10.4676 16.576C10.1093 16.576 9.7549 16.6509 9.42721 16.7959C9.09953 16.9409 8.80576 17.1527 8.56474 17.4179H7.89617V15.7036C7.89617 15.4763 7.98648 15.2582 8.14722 15.0975C8.30797 14.9368 8.52599 14.8464 8.75331 14.8464H20.7533C20.9806 14.8464 21.1987 14.9368 21.3594 15.0975C21.5202 15.2582 21.6105 15.4763 21.6105 15.7036V17.4179Z" fill="#FFCE47"/>
</g>
</g>
<defs>
<clipPath id="clip0_2337_5747">
<rect width="22.7216" height="22.7216" fill="white" transform="translate(3.45789 3.94531)"/>
</clipPath>
<clipPath id="clip1_2337_5747">
<rect width="22.7216" height="22.7216" fill="white" transform="translate(3.63965 3.55103)"/>
</clipPath>
</defs>
</svg>
